<svg xmlns="http://www.w3.org/2000/svg" xmlns:xlink="http://www.w3.org/1999/xlink" width="500" zoomAndPan="magnify" viewBox="0 0 375 374.999991" height="500" preserveAspectRatio="xMidYMid meet" version="1.0"><defs><g/><clipPath id="5a88c614a9"><path d="M 0 162.222656 L 36.066406 162.222656 L 36.066406 213.203125 L 0 213.203125 Z M 0 162.222656 " clip-rule="nonzero"/></clipPath><clipPath id="b846413d8e"><path d="M 37.925781 162.222656 L 63 162.222656 L 63 203.199219 L 37.925781 203.199219 Z M 37.925781 162.222656 " clip-rule="nonzero"/></clipPath><clipPath id="d3356e97bc"><path d="M 26.90625 203.132812 L 37.988281 203.132812 L 37.988281 213.203125 L 26.90625 213.203125 Z M 26.90625 203.132812 " clip-rule="nonzero"/></clipPath><clipPath id="34d5453ac5"><path d="M 25 162.210938 L 51 162.210938 L 51 204 L 25 204 Z M 25 162.210938 " clip-rule="nonzero"/></clipPath></defs><g fill="#1a3038" fill-opacity="1"><g transform="translate(62.096342, 211.154662)"><g><path d="M 35.109375 0 L 27.40625 0 L 11.625 -21.125 L 11.625 0 L 3.4375 0 L 3.4375 -34.328125 L 11.125 -34.328125 L 26.96875 -13.140625 L 26.96875 -34.328125 L 35.109375 -34.328125 Z M 35.109375 0 "/></g></g></g><g fill="#1a3038" fill-opacity="1"><g transform="translate(103.227427, 211.154662)"><g><path d="M 16.625 -34.71875 C 21.75 -34.71875 26.257812 -33.441406 30.15625 -30.890625 L 26.875 -24.078125 C 25.070312 -25.117188 23.140625 -25.972656 21.078125 -26.640625 C 19.023438 -27.316406 17.296875 -27.65625 15.890625 -27.65625 C 13.367188 -27.65625 12.109375 -26.820312 12.109375 -25.15625 C 12.109375 -24.070312 12.726562 -23.203125 13.96875 -22.546875 C 15.21875 -21.898438 16.734375 -21.335938 18.515625 -20.859375 C 20.296875 -20.390625 22.078125 -19.816406 23.859375 -19.140625 C 25.640625 -18.472656 27.148438 -17.382812 28.390625 -15.875 C 29.628906 -14.375 30.25 -12.484375 30.25 -10.203125 C 30.25 -6.898438 28.957031 -4.320312 26.375 -2.46875 C 23.789062 -0.625 20.507812 0.296875 16.53125 0.296875 C 13.6875 0.296875 10.875 -0.191406 8.09375 -1.171875 C 5.3125 -2.148438 2.890625 -3.492188 0.828125 -5.203125 L 4.21875 -11.921875 C 5.945312 -10.410156 7.988281 -9.171875 10.34375 -8.203125 C 12.695312 -7.242188 14.789062 -6.765625 16.625 -6.765625 C 18.03125 -6.765625 19.125 -7.015625 19.90625 -7.515625 C 20.6875 -8.023438 21.078125 -8.769531 21.078125 -9.75 C 21.078125 -10.695312 20.628906 -11.488281 19.734375 -12.125 C 18.835938 -12.769531 17.71875 -13.242188 16.375 -13.546875 C 15.03125 -13.859375 13.570312 -14.273438 12 -14.796875 C 10.4375 -15.328125 8.984375 -15.898438 7.640625 -16.515625 C 6.304688 -17.140625 5.1875 -18.128906 4.28125 -19.484375 C 3.382812 -20.847656 2.9375 -22.476562 2.9375 -24.375 C 2.9375 -27.507812 4.1875 -30.015625 6.6875 -31.890625 C 9.1875 -33.773438 12.5 -34.71875 16.625 -34.71875 Z M 16.625 -34.71875 "/></g></g></g><g fill="#1a3038" fill-opacity="1"><g transform="translate(137.39725, 211.154662)"><g><path d="M 35.109375 0 L 27.40625 0 L 11.625 -21.125 L 11.625 0 L 3.4375 0 L 3.4375 -34.328125 L 11.125 -34.328125 L 26.96875 -13.140625 L 26.96875 -34.328125 L 35.109375 -34.328125 Z M 35.109375 0 "/></g></g></g><g fill="#1a3038" fill-opacity="1"><g transform="translate(178.52833, 211.154662)"><g><path d="M 30.296875 -27.453125 L 12.15625 -27.453125 L 12.15625 -20.640625 L 28.53125 -20.640625 L 28.53125 -13.78125 L 12.15625 -13.78125 L 12.15625 -6.859375 L 30.84375 -6.859375 L 30.84375 0 L 3.4375 0 L 3.4375 -34.328125 L 30.296875 -34.328125 Z M 30.296875 -27.453125 "/></g></g></g><g fill="#1a3038" fill-opacity="1"><g transform="translate(214.168835, 211.154662)"><g><path d="M 26.234375 -6.328125 L 11.234375 -6.328125 L 8.734375 0 L -0.25 0 L 14.5625 -34.328125 L 23.53125 -34.328125 L 38 0 L 28.6875 0 Z M 23.6875 -12.9375 L 18.78125 -25.640625 L 13.78125 -12.9375 Z M 23.6875 -12.9375 "/></g></g></g><g fill="#1a3038" fill-opacity="1"><g transform="translate(254.515554, 211.154662)"><g><path d="M 25.796875 0 L 16.71875 -13.484375 L 12.15625 -8.4375 L 12.15625 0 L 3.4375 0 L 3.4375 -34.328125 L 12.15625 -34.328125 L 12.15625 -19.46875 L 25.296875 -34.328125 L 35.40625 -34.328125 L 22.65625 -20.109375 L 36.234375 0 Z M 25.796875 0 "/></g></g></g><g fill="#1a3038" fill-opacity="1"><g transform="translate(293.734747, 211.154662)"><g><path d="M 30.296875 -27.453125 L 12.15625 -27.453125 L 12.15625 -20.640625 L 28.53125 -20.640625 L 28.53125 -13.78125 L 12.15625 -13.78125 L 12.15625 -6.859375 L 30.84375 -6.859375 L 30.84375 0 L 3.4375 0 L 3.4375 -34.328125 L 30.296875 -34.328125 Z M 30.296875 -27.453125 "/></g></g></g><g fill="#1a3038" fill-opacity="1"><g transform="translate(329.375253, 211.154662)"><g><path d="M 24.125 0 L 19.03125 -9.65625 L 12.15625 -9.65625 L 12.15625 0 L 3.4375 0 L 3.4375 -34.328125 L 18.78125 -34.328125 C 23.320312 -34.328125 26.832031 -33.285156 29.3125 -31.203125 C 31.800781 -29.128906 33.046875 -26.179688 33.046875 -22.359375 C 33.046875 -17.066406 30.96875 -13.390625 26.8125 -11.328125 L 34.03125 0 Z M 12.15625 -16.53125 L 18.78125 -16.53125 C 20.675781 -16.53125 22.144531 -17.003906 23.1875 -17.953125 C 24.238281 -18.898438 24.765625 -20.269531 24.765625 -22.0625 C 24.765625 -23.832031 24.238281 -25.171875 23.1875 -26.078125 C 22.144531 -26.992188 20.675781 -27.453125 18.78125 -27.453125 L 12.15625 -27.453125 Z M 12.15625 -16.53125 "/></g></g></g><g clip-path="url(#5a88c614a9)"><path fill="#1a3038" d="M 36.066406 213.203125 L 26.933594 213.203125 C 24.625 213.203125 22.53125 211.855469 21.574219 209.75 L 0 162.222656 L 9.136719 162.222656 C 11.441406 162.222656 13.535156 163.574219 14.492188 165.675781 L 36.066406 213.203125 " fill-opacity="1" fill-rule="nonzero"/></g><g clip-path="url(#b846413d8e)"><path fill="#31916f" d="M 44.414062 203.15625 L 63 162.222656 L 53.863281 162.222656 C 51.558594 162.222656 49.460938 163.574219 48.507812 165.675781 L 37.953125 188.925781 L 44.414062 203.15625 " fill-opacity="1" fill-rule="nonzero"/></g><g clip-path="url(#d3356e97bc)"><path fill="#1a3038" d="M 34.484375 209.75 L 31.492188 203.15625 L 26.933594 213.203125 L 36.066406 213.203125 C 36.71875 213.203125 37.355469 213.09375 37.953125 212.894531 C 36.441406 212.378906 35.167969 211.257812 34.484375 209.75 " fill-opacity="1" fill-rule="nonzero"/></g><g clip-path="url(#34d5453ac5)"><path fill="#31916f" d="M 44.414062 203.15625 L 50.863281 188.957031 L 40.292969 165.675781 C 39.339844 163.574219 37.246094 162.222656 34.9375 162.222656 L 25.800781 162.222656 L 44.414062 203.21875 C 44.414062 203.179688 44.414062 203.15625 44.414062 203.15625 " fill-opacity="1" fill-rule="nonzero"/></g></svg>